<svg xmlns="http://www.w3.org/2000/svg" viewBox="0 0 48 48" fill="none" aria-hidden="true">
  <rect width="48" height="48" rx="12" fill="#1E4FD6"/>
  <path
    d="M24 10c-4.2 0-7.5 3.1-7.5 7.2 0 2.4 1.1 4.5 2.8 5.9-.4 1.1-.7 2.3-.7 3.5 0 4.8 2.6 8.8 5.4 8.8s5.4-4 5.4-8.8c0-1.2-.3-2.4-.7-3.5 1.7-1.4 2.8-3.5 2.8-5.9C31.5 13.1 28.2 10 24 10Z"
    fill="white"
  />
  <path
    d="M20.2 18.4c.8-1.2 2.1-1.9 3.8-1.9s3 .7 3.8 1.9"
    stroke="#7EB6FF"
    stroke-width="1.4"
    stroke-linecap="round"
  />
</svg>
